<?xml version="1.0" encoding="UTF-8"?>
<svg width="32px" height="32px" viewBox="0 0 32 32" version="1.1" xmlns="http://www.w3.org/2000/svg" xmlns:xlink="http://www.w3.org/1999/xlink">
    <!-- Generator: Sketch 53.2 (72643) - https://sketchapp.com -->
    <title>twitter-on</title>
    <desc>Created with Sketch.</desc>
    <g id="twitter-on" stroke="none" stroke-width="1" fill="none" fill-rule="evenodd">
        <path d="M30.5,5.01258233 C29.3247452,5.84074745 28.0234961,6.47416089 26.6463636,6.88842986 C25.1323503,5.14933259 22.692545,4.53946945 20.5371,5.36133479 C18.381655,6.18320015 16.9690731,8.26196817 17,10.5665623 L17,11.7926064 C12.6194523,11.9060797 8.47294015,9.82109128 5.95454545,6.23862647 C5.95454545,6.23862647 1.04545455,17.2730237 12.0909091,22.1772002 C9.56337473,23.8911686 6.55241984,24.7505803 3.5,24.6292885 C14.5454545,30.7595092 28.0454545,24.6292885 28.0454545,10.5297809 C28.0443244,10.1882708 28.011456,9.84760312 27.9472727,9.51216431 C29.1998311,8.2781424 30.0837427,6.72010968 30.5,5.01258233 Z" id="Path" stroke="#CC2A2B" stroke-width="1.8"></path>
    </g>
</svg>