<?xml version="1.0" encoding="UTF-8"?>
<svg width="32px" height="32px" viewBox="0 0 32 32" version="1.1" xmlns="http://www.w3.org/2000/svg" xmlns:xlink="http://www.w3.org/1999/xlink">
    <!-- Generator: Sketch 53.2 (72643) - https://sketchapp.com -->
    <title>youtube-on</title>
    <desc>Created with Sketch.</desc>
    <g id="youtube-on" stroke="none" stroke-width="1" fill="none" fill-rule="evenodd">
        <path d="M30.3719804,9.28719276 C30.042285,7.97502063 29.0332293,6.93874056 27.7266633,6.57050453 C25.3813307,6 16,6 16,6 C16,6 6.61866934,6 4.27333668,6.62483829 C2.9667706,6.99307432 1.95771505,8.0293544 1.62801961,9.34152652 C1.19878904,11.7125916 0.988829087,14.1178852 1.00077947,16.5271669 C0.985479307,18.9545889 1.19545257,21.3782237 1.62801961,23.767141 C1.99120569,25.0375409 2.99435841,26.0265502 4.27333668,26.3751617 C6.61866934,27 16,27 16,27 C16,27 25.3813307,27 27.7266633,26.3751617 C29.0332293,26.0069256 30.042285,24.9706456 30.3719804,23.6584735 C30.7978999,21.3052625 31.0078466,18.9183065 30.9992205,16.5271669 C31.0145207,14.0997449 30.8045474,11.6761101 30.3719804,9.28719276 Z" id="Path" stroke="#CC2A2B" stroke-width="1.8" fill="#CC2A2B" fill-rule="nonzero"></path>
        <polygon id="Path" stroke="#FFFFFF" fill="#FFFFFF" fill-rule="nonzero" points="13 21 21 16.5 13 12"></polygon>
    </g>
</svg>